<svg xmlns="http://www.w3.org/2000/svg" xmlns:xlink="http://www.w3.org/1999/xlink" width="308" height="107" viewBox="0 0 308 107">
  <defs>
    <clipPath id="clip-path">
      <rect id="Rectangle_116" data-name="Rectangle 116" width="308" height="107" transform="translate(1612 9591)" fill="#d9d9d9"/>
    </clipPath>
  </defs>
  <g id="Rectangle_116-2" data-name="Rectangle 116" transform="translate(-1612 -9591)" clip-path="url(#clip-path)">
    <g id="Group_1000001431" data-name="Group 1000001431">
      <g id="Group" transform="translate(0 10.653)">
        <g id="Group-2" data-name="Group" transform="translate(1583.983 9619.819)">
          <path id="Vector" d="M.374,89.49c2.523,3.28,5.046,6.522,7.61,9.764,10.174,12.774,21.217,25.2,34.989,34.694,14.145,9.8,31.184,15.475,48.927,14.549a76.969,76.969,0,0,0,26.676-6.29c8.354-3.7,15.675-9.069,22.623-14.665,6.99-5.6,13.69-11.539,21.3-16.4A78.951,78.951,0,0,1,187.48,100.8c18.28-4.206,37.388-3.126,56-2.817,17.743.309,35.444-.154,52.691-4.631,31.143-8.066,57.984-25.818,84-43.03,26.428-17.521,53.352-35.7,84.7-44.651,1.613-.424,2.151-2.74.5-3.512C463.961,1.5,462.6.883,461.19.227c-2.357-1.119-4.467,2.2-2.068,3.319,1.406.656,2.771,1.274,4.177,1.93.165-1.158.331-2.354.5-3.512-3.764,1.042-7.445,2.238-11.084,3.55C422.644,16.4,396.753,34.767,370.573,51.94,344.849,68.8,317.717,85.553,286.409,91.574c-18.032,3.473-36.478,2.624-54.759,2.316-17.908-.309-36.437-.232-53.518,5.48a85.349,85.349,0,0,0-23,12.079c-7.114,5.171-13.648,11-20.6,16.363-7.279,5.557-15.1,10.458-24.029,13.353a73.6,73.6,0,0,1-27.172,3.4c-36.189-2.316-59.97-31.761-79.367-57-1.572-2.007-5.128-.077-3.6,1.93Z" transform="translate(466.374 148.595) rotate(180)" fill="#fff"/>
        </g>
      </g>
      <g id="Group-3" data-name="Group">
        <g id="Group-4" data-name="Group">
          <path id="Vector-2" data-name="Vector" d="M.082-49.259a139.765,139.765,0,0,0,12.325,12.9A138.7,138.7,0,0,0,147.029-6.247c24.236-7.61,44.46-21.8,62.286-39.621,18.57-18.57,35.444-39.084,58.6-52.236,50.457-28.62,110.758-23.285,166.344-20.266,55.834,3.061,111.337-.331,165.93-12.325a585.217,585.217,0,0,0,153.647-57.24c.289-.165.041-.62-.248-.455q-8.871,4.839-17.908,9.347a585.7,585.7,0,0,1-155.425,51.863A584.881,584.881,0,0,1,498-118c-28.744,1.117-57.323-.538-86.026-2.109-52.07-2.812-109.186-3.185-153.977,27.627C237.273-78.21,221.64-58.11,203.525-40.905c-19.066,18.115-41.689,31.226-67.456,37.1C86.232,7.526,33.293-10.589.413-49.632c-.207-.248-.579.124-.331.372Z" transform="translate(2051.969 9604) rotate(180)" fill="#fff"/>
        </g>
      </g>
    </g>
    <g id="Rectangle_22" data-name="Rectangle 22" transform="translate(1920 9719)" fill="#fff" stroke="#707070" stroke-width="1">
      <rect width="132" height="26" stroke="none"/>
      <rect x="0.5" y="0.5" width="131" height="25" fill="none"/>
    </g>
  </g>
</svg>
