<svg xmlns="http://www.w3.org/2000/svg" xmlns:xlink="http://www.w3.org/1999/xlink" width="308" height="107" viewBox="0 0 308 107">
  <defs>
    <clipPath id="clip-path">
      <rect id="Rectangle_116" data-name="Rectangle 116" width="308" height="107" transform="translate(1612 9591)" fill="#d9d9d9"/>
    </clipPath>
  </defs>
  <g id="Rectangle_116-2" data-name="Rectangle 116" transform="translate(-1612 -9591)" clip-path="url(#clip-path)">
    <g id="Group_1000001431" data-name="Group 1000001431" transform="translate(0 2.64)">
      <g id="Group" transform="translate(1584.014 9630.473)">
        <g id="Group-2" data-name="Group" transform="translate(0)">
          <path id="Vector" d="M.374,87.9c2.523,3.222,5.046,6.406,7.61,9.59,10.174,12.547,21.217,24.753,34.989,34.078,14.145,9.628,31.184,15.2,48.927,14.291a78.123,78.123,0,0,0,26.676-6.179c8.354-3.639,15.675-8.908,22.623-14.4,6.99-5.5,13.69-11.334,21.3-16.11a79.743,79.743,0,0,1,24.98-10.159c18.28-4.132,37.388-3.07,56-2.767,17.743.3,35.444-.152,52.691-4.549,31.143-7.922,57.984-25.359,84-42.265,26.428-17.209,53.352-35.063,84.7-43.857,1.613-.417,2.151-2.691.5-3.449-1.406-.644-2.771-1.251-4.177-1.9-2.357-1.1-4.467,2.161-2.068,3.26,1.406.644,2.771,1.251,4.177,1.9.165-1.137.331-2.312.5-3.449-3.764,1.023-7.445,2.2-11.084,3.487-30.068,10.69-55.958,28.733-82.138,45.6-25.725,16.565-52.856,33.016-84.164,38.93-18.032,3.412-36.478,2.578-54.759,2.274-17.908-.3-36.437-.227-53.518,5.383a85.891,85.891,0,0,0-23,11.865c-7.114,5.079-13.648,10.8-20.6,16.072-7.279,5.458-15.1,10.273-24.029,13.116a74.844,74.844,0,0,1-27.172,3.336C47.151,139.718,23.369,110.8,3.972,86c-1.572-1.971-5.128-.076-3.6,1.9Z" transform="translate(466.374 145.955) rotate(180)" fill="#fff"/>
        </g>
      </g>
      <g id="Group-3" data-name="Group" transform="translate(1298 9604)">
        <g id="Group-4" data-name="Group">
          <path id="Vector-2" data-name="Vector" d="M.082,137.216a138.673,138.673,0,0,0,12.325,12.723,140.162,140.162,0,0,0,134.627,29.687c24.237-7.5,44.462-21.491,62.288-39.066,18.571-18.31,35.446-38.536,58.607-51.5C318.39,60.837,378.693,66.1,434.281,69.074c55.836,3.018,111.341-.326,165.937-12.152A590.494,590.494,0,0,0,753.871.484a.256.256,0,0,0-.248-.449q-8.872,4.771-17.909,9.216A591.52,591.52,0,0,1,580.282,60.388a592.915,592.915,0,0,1-82.265,9.053c-28.745,1.1-57.325-.53-86.029-2.08C359.916,64.588,302.8,64.221,258,94.6c-20.721,14.069-36.356,33.887-54.471,50.851-19.067,17.861-41.691,30.788-67.458,36.579A139.7,139.7,0,0,1,.413,136.849c-.207-.245-.579.122-.331.367Z" transform="translate(754 185.785) rotate(180)" fill="#fff"/>
        </g>
      </g>
    </g>
    <g id="Rectangle_22" data-name="Rectangle 22" transform="translate(1920 9719)" fill="#fff" stroke="#707070" stroke-width="1">
      <rect width="132" height="26" stroke="none"/>
      <rect x="0.5" y="0.5" width="131" height="25" fill="none"/>
    </g>
  </g>
</svg>
